<svg version="1" xmlns="http://www.w3.org/2000/svg" width="744" height="744" viewBox="0 0 558.000000 558.000000"><path d="M0 279v279h558V0H0v279zM292.6 92.8l12.1 5.7 18.3 50c10.1 27.5 19.4 52.8 20.7 56.3l2.3 6.2-20.2-.2-20.1-.3-23.9-65c-13.1-35.8-24.1-66-24.4-67.3-.6-2 .3-1.8 11.2 3.4 6.6 3 17.4 8.1 24 11.2zm-18.2 52.3c12.3 33.8 23.4 64 24.6 67.1l2.1 5.8h148.3l-59.7 44.5c-34 25.4-59.4 45.1-59.2 45.8 1.3 3.3 45.4 148.1 45.2 148.3-.1.1-28.3-20.5-62.7-45.6l-62.5-45.8-3 2.2c-27.5 19.8-118 83.4-118.3 83.1-.2-.2 9.2-32 20.9-70.7 11.6-38.6 21.2-70.8 21.3-71.5 0-.6-26.9-21.1-59.9-45.5l-60-44.3 74.4-.5 74.3-.5 23.9-68.5c13.2-37.7 24.2-69.2 24.5-70 .9-2 .1-4.1 25.8 66.1zm114.3 189.3c1.1 1.1 46.7 147.5 46.1 148.1-.2.2-11.3-5.4-24.7-12.3l-24.5-12.7-21.2-70.5c-11.7-38.8-21.6-71.7-21.9-73.2-.6-2.6.2-2.3 22.2 8.4 12.5 6 23.3 11.5 24 12.2z"/></svg>